<?xml version="1.0" standalone="no"?>
<!DOCTYPE svg PUBLIC "-//W3C//DTD SVG 20010904//EN"
 "http://www.w3.org/TR/2001/REC-SVG-20010904/DTD/svg10.dtd">
<svg version="1.0" xmlns="http://www.w3.org/2000/svg"
 width="480.000000pt" height="480.000000pt" viewBox="0 0 480.000000 480.000000"
 preserveAspectRatio="xMidYMid meet">
<metadata>
Created by potrace 1.11, written by Peter Selinger 2001-2013
</metadata>
<g transform="translate(0.000000,480.000000) scale(0.100000,-0.100000)"
fill="#000000" stroke="none">
<path d="M2318 4220 c-37 -5 -91 -16 -120 -26 -76 -24 -2056 -971 -2098 -1002
-45 -33 -57 -48 -80 -97 -38 -79 -16 -163 61 -229 24 -21 88 -59 142 -84 l97
-46 0 -442 c0 -442 0 -443 -21 -449 -33 -11 -98 -74 -122 -119 -29 -56 -30
-174 -3 -230 21 -41 75 -102 114 -127 l24 -14 -121 -384 c-67 -211 -121 -388
-121 -392 0 -9 673 -13 682 -4 3 3 -39 146 -94 318 -54 171 -109 347 -122 389
l-24 76 45 29 c87 55 135 168 113 270 -15 70 -61 138 -115 171 l-44 27 -1 392
0 393 145 -72 145 -73 0 -587 0 -587 49 -58 c303 -362 773 -608 1286 -674 119
-15 406 -15 525 0 372 48 716 188 1005 410 80 61 235 211 285 276 l40 52 0
582 0 583 346 169 c225 111 359 183 386 207 101 91 103 202 4 297 -46 44 -120
83 -666 350 -338 164 -788 383 -999 487 -263 128 -404 192 -450 202 -88 20
-211 26 -293 16z m266 -191 c56 -16 1997 -966 2020 -988 11 -11 16 -26 13 -36
-7 -15 -703 -365 -728 -365 -7 0 -22 -8 -33 -18 -33 -29 -1224 -602 -1286
-618 -70 -18 -230 -18 -300 0 -46 12 -1510 705 -1532 725 -7 6 175 29 1187
146 264 31 493 61 509 67 32 13 60 66 49 95 -14 40 -45 63 -87 63 -23 0 -473
-52 -1001 -114 l-960 -114 -125 61 c-98 49 -125 66 -125 82 0 25 2 26 1141
573 616 296 922 437 965 447 71 16 227 13 293 -6z m-944 -1924 c261 -125 491
-233 510 -241 122 -48 321 -58 455 -24 57 14 230 95 638 295 308 151 564 275
569 275 4 0 8 -232 8 -515 l0 -515 -92 -94 c-378 -380 -905 -572 -1466 -535
-448 30 -860 211 -1174 517 l-108 105 0 523 0 523 93 -43 c50 -24 306 -146
567 -271z"/>
</g>
</svg>
